
<svg id="visual" viewBox="0 0 960 540" width="960" height="540" xmlns="http://www.w3.org/2000/svg" xmlns:xlink="http://www.w3.org/1999/xlink" version="1.1"><rect x="0" y="0" width="960" height="540" fill="#333"></rect><path d="M0 268L9.3 261.7C18.7 255.3 37.3 242.7 56.2 243.7C75 244.7 94 259.3 112.8 275C131.7 290.7 150.3 307.3 169.2 314C188 320.7 207 317.3 225.8 303.8C244.7 290.3 263.3 266.7 282.2 259.8C301 253 320 263 338.8 273.8C357.7 284.7 376.3 296.3 395.2 292.2C414 288 433 268 451.8 266C470.7 264 489.3 280 508.2 289.8C527 299.7 546 303.3 564.8 306.5C583.7 309.7 602.3 312.3 621.2 299.3C640 286.3 659 257.7 677.8 253.7C696.7 249.7 715.3 270.3 734.2 270.8C753 271.3 772 251.7 790.8 246.7C809.7 241.7 828.3 251.3 847.2 257.5C866 263.7 885 266.3 903.8 271C922.7 275.7 941.3 282.3 950.7 285.7L960 289L960 0L950.7 0C941.3 0 922.7 0 903.8 0C885 0 866 0 847.2 0C828.3 0 809.7 0 790.8 0C772 0 753 0 734.2 0C715.3 0 696.7 0 677.8 0C659 0 640 0 621.2 0C602.3 0 583.7 0 564.8 0C546 0 527 0 508.2 0C489.3 0 470.7 0 451.8 0C433 0 414 0 395.2 0C376.3 0 357.7 0 338.8 0C320 0 301 0 282.2 0C263.3 0 244.7 0 225.8 0C207 0 188 0 169.2 0C150.3 0 131.7 0 112.8 0C94 0 75 0 56.2 0C37.3 0 18.7 0 9.3 0L0 0Z" fill="#b0c4de"></path><path d="M0 258L9.3 251.3C18.7 244.7 37.3 231.3 56.2 224.3C75 217.3 94 216.7 112.8 224C131.7 231.3 150.3 246.7 169.2 245.8C188 245 207 228 225.8 226.8C244.7 225.7 263.3 240.3 282.2 248.8C301 257.3 320 259.7 338.8 254.7C357.7 249.7 376.3 237.3 395.2 229.7C414 222 433 219 451.8 226.2C470.7 233.3 489.3 250.7 508.2 245.2C527 239.7 546 211.3 564.8 209.5C583.7 207.7 602.3 232.3 621.2 234C640 235.7 659 214.3 677.8 212.2C696.7 210 715.3 227 734.2 231.7C753 236.3 772 228.7 790.8 225.5C809.7 222.3 828.3 223.7 847.2 225.5C866 227.3 885 229.7 903.8 229.8C922.7 230 941.3 228 950.7 227L960 226L960 0L950.7 0C941.3 0 922.7 0 903.8 0C885 0 866 0 847.2 0C828.3 0 809.7 0 790.8 0C772 0 753 0 734.2 0C715.3 0 696.7 0 677.8 0C659 0 640 0 621.2 0C602.3 0 583.7 0 564.8 0C546 0 527 0 508.2 0C489.3 0 470.7 0 451.8 0C433 0 414 0 395.2 0C376.3 0 357.7 0 338.8 0C320 0 301 0 282.2 0C263.3 0 244.7 0 225.8 0C207 0 188 0 169.2 0C150.3 0 131.7 0 112.8 0C94 0 75 0 56.2 0C37.3 0 18.7 0 9.3 0L0 0Z" fill="#c4b5d8"></path><path d="M0 143L9.3 148.8C18.7 154.7 37.3 166.3 56.2 171.7C75 177 94 176 112.8 176.8C131.7 177.7 150.3 180.3 169.2 175.3C188 170.3 207 157.7 225.8 159.7C244.7 161.7 263.3 178.3 282.2 188.2C301 198 320 201 338.8 198.5C357.7 196 376.3 188 395.2 177.3C414 166.7 433 153.3 451.8 144.7C470.7 136 489.3 132 508.2 137.5C527 143 546 158 564.8 165.8C583.7 173.7 602.3 174.3 621.2 175.2C640 176 659 177 677.8 170.7C696.7 164.3 715.3 150.7 734.2 147.7C753 144.7 772 152.3 790.8 158C809.7 163.7 828.3 167.3 847.2 173.2C866 179 885 187 903.8 182.2C922.7 177.3 941.3 159.7 950.7 150.8L960 142L960 0L950.7 0C941.3 0 922.7 0 903.8 0C885 0 866 0 847.2 0C828.3 0 809.7 0 790.8 0C772 0 753 0 734.2 0C715.3 0 696.7 0 677.8 0C659 0 640 0 621.2 0C602.3 0 583.7 0 564.8 0C546 0 527 0 508.2 0C489.3 0 470.7 0 451.8 0C433 0 414 0 395.2 0C376.3 0 357.7 0 338.8 0C320 0 301 0 282.2 0C263.3 0 244.7 0 225.8 0C207 0 188 0 169.2 0C150.3 0 131.7 0 112.8 0C94 0 75 0 56.2 0C37.3 0 18.7 0 9.3 0L0 0Z" fill="#dca5bc"></path><path d="M0 140L9.3 135C18.7 130 37.3 120 56.2 117.8C75 115.7 94 121.3 112.8 122.2C131.7 123 150.3 119 169.2 120.7C188 122.3 207 129.7 225.8 129.3C244.7 129 263.3 121 282.2 117C301 113 320 113 338.8 110.8C357.7 108.7 376.3 104.3 395.2 105C414 105.7 433 111.3 451.8 118.3C470.7 125.3 489.3 133.7 508.2 133.5C527 133.3 546 124.7 564.8 114.3C583.7 104 602.3 92 621.2 96.5C640 101 659 122 677.8 132.7C696.7 143.3 715.3 143.7 734.2 144.2C753 144.7 772 145.3 790.8 136C809.7 126.7 828.3 107.3 847.2 106.2C866 105 885 122 903.8 129.3C922.7 136.7 941.3 134.3 950.7 133.2L960 132L960 0L950.7 0C941.3 0 922.7 0 903.8 0C885 0 866 0 847.2 0C828.3 0 809.7 0 790.8 0C772 0 753 0 734.2 0C715.3 0 696.7 0 677.8 0C659 0 640 0 621.2 0C602.3 0 583.7 0 564.8 0C546 0 527 0 508.2 0C489.3 0 470.7 0 451.8 0C433 0 414 0 395.2 0C376.3 0 357.7 0 338.8 0C320 0 301 0 282.2 0C263.3 0 244.7 0 225.8 0C207 0 188 0 169.2 0C150.3 0 131.7 0 112.8 0C94 0 75 0 56.2 0C37.3 0 18.7 0 9.3 0L0 0Z" fill="#e09c92"></path><path d="M0 74L9.3 68.3C18.7 62.7 37.3 51.3 56.2 50.8C75 50.3 94 60.7 112.8 66C131.7 71.3 150.3 71.7 169.2 74.8C188 78 207 84 225.8 80.8C244.7 77.7 263.3 65.3 282.2 59.5C301 53.7 320 54.3 338.8 55.2C357.7 56 376.3 57 395.2 57.7C414 58.3 433 58.7 451.8 55.7C470.7 52.7 489.3 46.3 508.2 50.5C527 54.7 546 69.3 564.8 70.3C583.7 71.3 602.3 58.7 621.2 52.7C640 46.7 659 47.3 677.8 52.3C696.7 57.3 715.3 66.7 734.2 69.5C753 72.3 772 68.7 790.8 66.2C809.7 63.7 828.3 62.3 847.2 64.8C866 67.3 885 73.7 903.8 77C922.7 80.3 941.3 80.7 950.7 80.8L960 81L960 0L950.7 0C941.3 0 922.7 0 903.8 0C885 0 866 0 847.2 0C828.3 0 809.7 0 790.8 0C772 0 753 0 734.2 0C715.3 0 696.7 0 677.8 0C659 0 640 0 621.2 0C602.3 0 583.7 0 564.8 0C546 0 527 0 508.2 0C489.3 0 470.7 0 451.8 0C433 0 414 0 395.2 0C376.3 0 357.7 0 338.8 0C320 0 301 0 282.2 0C263.3 0 244.7 0 225.8 0C207 0 188 0 169.2 0C150.3 0 131.7 0 112.8 0C94 0 75 0 56.2 0C37.3 0 18.7 0 9.3 0L0 0Z" fill="#c79f6c"></path></svg>
